<svg width="50" height="50" viewBox="0 0 50 50" fill="none" xmlns="http://www.w3.org/2000/svg">
<path fill-rule="evenodd" clip-rule="evenodd" d="M43.9225 0.244142C43.7663 0.0878916 43.5547 0 43.3333 0H14.1667C13.7061 0 13.3333 0.372725 13.3333 0.833333V18.8216L1.42253 6.91081C1.18408 6.67237 0.826008 6.60075 0.514325 6.73014C0.202633 6.85872 0 7.16308 0 7.5V49.1667C0 49.6273 0.372725 50 0.833333 50H42.5C42.8369 50 43.1413 49.7974 43.2699 49.4857C43.3992 49.174 43.3276 48.8159 43.0892 48.5775L37.845 43.3333H40.8333H49.1667C49.6273 43.3333 50 42.9606 50 42.5V13.3333V6.66667C50 6.44532 49.9121 6.23372 49.7559 6.07747L43.9225 0.244142ZM1.66667 48.3333V9.51172L5.48828 13.3333L4.41081 14.4108L5.58919 15.5892L6.66667 14.5117L7.98828 15.8333L6.91081 16.9108L8.08919 18.0892L9.16667 17.0117L10.4883 18.3333L9.41081 19.4108L10.5892 20.5892L11.6667 19.5117L12.9883 20.8333L11.9108 21.9108L13.0892 23.0892L14.1667 22.0117L15.4883 23.3333L14.4108 24.4108L15.5892 25.5892L16.6667 24.5117L17.9883 25.8333L16.9108 26.9108L18.0892 28.0892L19.1667 27.0117L20.4883 28.3333L19.4108 29.4108L20.5892 30.5892L21.6667 29.5117L22.9883 30.8333L21.9108 31.9108L23.0892 33.0892L24.1667 32.0117L25.4883 33.3333L24.4108 34.4108L25.5892 35.5892L26.6667 34.5117L27.9883 35.8333L26.9108 36.9108L28.0892 38.0892L29.1667 37.0117L30.4883 38.3333L29.4108 39.4108L30.5892 40.5892L31.6667 39.5117L32.9883 40.8333L31.9108 41.9108L33.0892 43.0892L34.1667 42.0117L35.4883 43.3333L34.4108 44.4108L35.5892 45.5892L36.6667 44.5117L40.4883 48.3333H1.66667ZM22.5 27.9883L19.1667 24.6549V10.8333H22.5V27.9883ZM19.6818 9.16667L20.8333 6.86361L21.9849 9.16667H19.6818ZM30.0138 25.9277L31.4339 21.6667H33.5661L34.9862 25.9277L33.6623 39.1506L31.0748 36.5631L30.0138 25.9277ZM33.3333 16.6667V12.9057L35.6893 16.6756L33.6948 20H31.3052L29.3107 16.6756L31.6667 12.9057V16.6667H33.3333ZM35.185 40.6733L36.6626 25.9163C36.674 25.7992 36.661 25.6811 36.6235 25.5697L35.0782 20.9338L37.3812 17.0955C37.5423 16.827 37.5391 16.4909 37.373 16.2248L33.2064 9.5581C32.902 9.07145 32.098 9.07145 31.7936 9.5581L27.6269 16.2248C27.4609 16.4909 27.4577 16.827 27.6188 17.0955L29.9218 20.9338L28.3764 25.5697C28.339 25.6811 28.326 25.7991 28.3374 25.9163L29.2141 34.7023L24.1667 29.6549V10C24.1667 9.87061 24.1366 9.74284 24.0788 9.62727L21.5788 4.62727C21.2956 4.0625 20.3711 4.0625 20.0879 4.62727L17.5879 9.62727C17.5301 9.74284 17.5 9.87061 17.5 10V22.9883L15 20.4883V1.66667H42.9883L47.1549 5.83333H44.1667V4.16667H42.5V6.66667C42.5 7.12727 42.8727 7.5 43.3333 7.5H48.3333V12.5H40.8333C40.3727 12.5 40 12.8727 40 13.3333V41.6667H36.1784L35.185 40.6733ZM41.6667 41.6667V14.1667H48.3333V16.6667H46.6667V18.3333H48.3333V20.8333H46.6667V22.5H48.3333V25H46.6667V26.6667H48.3333V29.1667H46.6667V30.8333H48.3333V33.3333H46.6667V35H48.3333V37.5H46.6667V39.1667H48.3333V41.6667H41.6667ZM7.97434 23.1945C7.73683 22.957 7.38015 22.8849 7.06969 23.0146C6.75922 23.1427 6.55738 23.4458 6.55738 23.7814V42.6126C6.55738 43.0714 6.92864 43.4426 7.38745 43.4426H26.2189C26.5545 43.4426 26.8577 43.2408 26.9858 42.9303C27.1147 42.6199 27.0433 42.2632 26.8058 42.0257L7.97434 23.1945ZM8.21752 25.7852L13.198 30.7656V41.7825H8.21752V25.7852ZM14.8581 41.7825V32.4257L24.2151 41.7825H14.8581ZM4.91803 45.082H3.27869V46.7213H4.91803V45.082ZM6.55738 45.082H8.19672V46.7213H6.55738V45.082ZM11.4754 45.082H9.83607V46.7213H11.4754V45.082Z" fill="#FF6F06"/>
</svg>
