<svg width="151" height="44" viewBox="0 0 151 44" fill="none" xmlns="http://www.w3.org/2000/svg">
<path d="M3.80204 0V13.898L3.43323e-05 16.7883V43.0724H3.80558V18.3677L7.76724 15.1782V3.64231H12.7573V11.3507L20.9887 4.59961L37.9657 18.7406V39.1546H14.9176V25.7032H25.1557V34.9534H28.5515V22.0355H11.2139V43.0733H41.6185V16.5602L20.6798 0.000883665L16.1013 3.64231V0.000883665L3.80204 0Z" fill="#FF6F06"/>
<path d="M60.0915 40.2092C59.4881 40.4247 58.8535 40.5397 58.2129 40.5497C57.3008 40.592 56.4082 40.2772 55.7244 39.6722C55.4107 39.3769 55.164 39.0176 55.0011 38.6187C54.8382 38.2199 54.7629 37.7906 54.7803 37.3601C54.7631 36.9242 54.8378 36.4896 54.9995 36.0844C55.1613 35.6793 55.4065 35.3127 55.7191 35.0085C56.0488 34.7035 56.4357 34.4669 56.8574 34.3123C57.2791 34.1578 57.7273 34.0884 58.176 34.1083C58.7984 34.1158 59.4167 34.2094 60.0134 34.3864V35.2533C59.4278 34.9801 58.7922 34.8308 58.1462 34.8146C57.8364 34.8059 57.5283 34.8641 57.243 34.9853C56.9578 35.1064 56.702 35.2876 56.4931 35.5166C56.053 36.0031 55.8203 36.6422 55.8446 37.2978C55.8333 37.6304 55.8927 37.9616 56.0188 38.2696C56.145 38.5775 56.335 38.8552 56.5764 39.0843C57.0874 39.556 57.7646 39.8056 58.4594 39.7784C59.0192 39.7576 59.5712 39.641 60.0915 39.4335V40.2092ZM62.8748 37.3259C62.8306 36.4777 63.1012 35.6431 63.6347 34.9822C63.8879 34.6924 64.203 34.463 64.5567 34.3112C64.9104 34.1593 65.2937 34.0888 65.6782 34.1048C66.0628 34.0888 66.4461 34.1593 66.7998 34.3112C67.1535 34.463 67.4686 34.6924 67.7218 34.9822C68.2553 35.6431 68.5259 36.4777 68.4817 37.3259C68.5268 38.1744 68.2575 39.0098 67.7253 39.6722C67.4721 39.9621 67.157 40.1914 66.8033 40.3432C66.4496 40.4951 66.0663 40.5656 65.6817 40.5497C65.2972 40.5656 64.9139 40.4951 64.5602 40.3432C64.2065 40.1914 63.8914 39.9621 63.6382 39.6722C63.1035 39.0108 62.8317 38.1753 62.8748 37.3259ZM63.9347 37.3259C63.895 37.9773 64.0525 38.6255 64.3866 39.1861C64.5274 39.3967 64.72 39.5675 64.9459 39.682C65.1718 39.7965 65.4234 39.8508 65.6765 39.8398C65.9299 39.8507 66.1818 39.7963 66.4081 39.6818C66.6345 39.5674 66.8276 39.3967 66.969 39.1861C67.3047 38.6261 67.4631 37.9776 67.4235 37.3259C67.4628 36.6756 67.3044 36.0286 66.969 35.4701C66.8276 35.2595 66.6345 35.0888 66.4081 34.9743C66.1818 34.8599 65.9299 34.8055 65.6765 34.8164C65.4234 34.8053 65.1718 34.8597 64.9459 34.9742C64.72 35.0887 64.5274 35.2595 64.3866 35.4701C64.053 36.0292 63.8955 36.6759 63.9347 37.3259ZM71.6046 40.397V34.2381H72.5513L75.5198 38.7017H75.5303V34.2381H76.3428V40.4005H75.4197L72.432 35.8992H72.4171V40.4005L71.6046 40.397ZM84.2504 34.4005V35.2191C83.6294 34.9729 82.9702 34.8369 82.3025 34.8173C81.404 34.8173 80.9547 35.1045 80.9547 35.6789C80.9512 35.7857 80.9722 35.8919 81.016 35.9894C81.0598 36.0868 81.1252 36.173 81.2074 36.2414C81.4911 36.4402 81.8069 36.5886 82.141 36.6801L82.7772 36.8907L83.3826 37.0872C84.3186 37.4002 84.7865 37.9302 84.7865 38.6772C84.792 38.9467 84.7288 39.2131 84.6029 39.4515C84.477 39.6899 84.2926 39.8923 84.067 40.0399C83.4952 40.4051 82.8239 40.5833 82.1463 40.5497C81.4134 40.5238 80.6863 40.4098 79.9807 40.2101V39.2756C80.6683 39.6047 81.4134 39.7967 82.1744 39.8407C82.5843 39.8606 82.9917 39.7652 83.3501 39.5652C83.4832 39.4929 83.5943 39.386 83.6715 39.2558C83.7488 39.1256 83.7893 38.9769 83.7889 38.8255C83.7928 38.7178 83.771 38.6107 83.7252 38.5132C83.6794 38.4157 83.611 38.3305 83.5256 38.2648C83.1932 38.0518 82.8322 37.8872 82.4534 37.776L81.7874 37.5461C81.2846 37.3995 80.8156 37.1553 80.4072 36.8275C80.2775 36.7001 80.1761 36.5469 80.1095 36.3777C80.043 36.2085 80.0129 36.0272 80.0211 35.8456C80.0088 35.5996 80.0564 35.3543 80.1597 35.1308C80.263 34.9072 80.419 34.712 80.6142 34.5619C81.1076 34.2293 81.6973 34.0698 82.2911 34.1083C82.9541 34.1205 83.6127 34.2187 84.2504 34.4005ZM90.0627 40.4005V34.9655H87.5751V34.2566H93.5514V34.9655H91.0577V40.4005H90.0627ZM96.6725 40.4005V34.2583H98.4845C99.0138 34.2286 99.5445 34.2879 100.054 34.4338C100.332 34.5169 100.575 34.6897 100.745 34.9252C100.915 35.1607 101.002 35.4457 100.993 35.7359C101.007 36.1191 100.893 36.496 100.668 36.8064C100.37 37.1525 99.9975 37.4254 99.5778 37.604L101.814 40.4005H100.61L98.5652 37.8436H97.6675V40.4005H96.6725ZM97.6667 37.1346H98.1931C98.642 37.1586 99.087 37.041 99.4654 36.7985C99.6138 36.6992 99.7347 36.5639 99.8168 36.4052C99.8989 36.2466 99.9395 36.0698 99.9349 35.8913C99.951 35.749 99.9266 35.6051 99.8645 35.4761C99.8024 35.3471 99.7052 35.2382 99.5839 35.1621C99.1701 34.9996 98.7251 34.9324 98.2818 34.9655H97.6675L97.6667 37.1346ZM104.812 34.2566H105.807V37.9875C105.767 38.4815 105.881 38.9759 106.132 39.4028C106.259 39.5556 106.421 39.6754 106.605 39.7518C106.788 39.8282 106.987 39.859 107.185 39.8415C107.391 39.8608 107.599 39.8311 107.791 39.7549C107.983 39.6786 108.154 39.558 108.291 39.4028C108.553 38.971 108.671 38.4671 108.629 37.9638V34.2566H109.492V37.8243C109.531 38.3916 109.433 38.96 109.204 39.4809C109.004 39.8304 108.709 40.1161 108.353 40.3052C107.998 40.4943 107.596 40.579 107.194 40.5497C106.867 40.5769 106.537 40.5348 106.227 40.4259C105.917 40.317 105.633 40.1439 105.394 39.9179C104.963 39.3658 104.755 38.6717 104.812 37.9735V34.2566ZM118.165 40.2092C117.56 40.4251 116.925 40.5401 116.283 40.5497C115.37 40.5927 114.476 40.2779 113.792 39.6722C113.478 39.3771 113.232 39.0181 113.069 38.6195C112.906 38.221 112.83 37.7921 112.847 37.3619C112.83 36.926 112.905 36.4913 113.067 36.0862C113.228 35.6811 113.474 35.3145 113.786 35.0103C114.116 34.7052 114.503 34.4686 114.925 34.3141C115.346 34.1596 115.795 34.0902 116.243 34.11C116.866 34.1176 117.484 34.2112 118.081 34.3882V35.2551C117.495 34.9819 116.859 34.8325 116.213 34.8164C115.904 34.8077 115.596 34.8659 115.31 34.987C115.025 35.1082 114.769 35.2894 114.56 35.5183C114.12 36.0049 113.888 36.644 113.912 37.2996C113.901 37.6322 113.96 37.9634 114.086 38.2713C114.212 38.5793 114.402 38.857 114.644 39.0861C115.155 39.5578 115.832 39.8075 116.527 39.7801C117.089 39.7603 117.644 39.6436 118.167 39.4353L118.165 40.2092ZM123.245 40.4005V34.9655H120.758V34.2566H126.734V34.9655H124.24V40.4005H123.245ZM129.8 40.4005V39.6915H131.541V34.9655H129.8V34.2566H134.275V34.9655H132.536V39.6915H134.277V40.4005H129.8ZM137.535 37.3294C137.491 36.4812 137.762 35.6466 138.295 34.9857C138.549 34.6959 138.864 34.4665 139.217 34.3147C139.571 34.1628 139.954 34.0923 140.339 34.1083C140.724 34.0923 141.107 34.1628 141.461 34.3147C141.814 34.4665 142.129 34.6959 142.383 34.9857C142.916 35.6466 143.187 36.4812 143.142 37.3294C143.186 38.1772 142.915 39.0112 142.383 39.6722C142.129 39.9621 141.814 40.1914 141.461 40.3432C141.107 40.4951 140.724 40.5656 140.339 40.5497C139.954 40.5656 139.571 40.4951 139.217 40.3432C138.864 40.1914 138.549 39.9621 138.295 39.6722C137.762 39.0103 137.491 38.1749 137.535 37.3259V37.3294ZM138.595 37.3294C138.556 37.9808 138.713 38.629 139.047 39.1896C139.188 39.4002 139.381 39.571 139.607 39.6855C139.833 39.8 140.084 39.8543 140.337 39.8433C140.591 39.8542 140.843 39.7998 141.069 39.6853C141.295 39.5709 141.488 39.4002 141.63 39.1896C141.965 38.6296 142.124 37.9811 142.084 37.3294C142.124 36.6791 141.965 36.0321 141.63 35.4736C141.488 35.263 141.295 35.0923 141.069 34.9779C140.843 34.8634 140.591 34.809 140.337 34.8199C140.084 34.8089 139.833 34.8632 139.607 34.9777C139.381 35.0922 139.188 35.263 139.047 35.4736C138.714 36.0317 138.557 36.6771 138.595 37.3259V37.3294ZM146.265 40.4005V34.2381H147.209L150.177 38.7017H150.187V34.2381H151V40.4005H150.081L147.093 35.8992H147.078V40.4005H146.265Z" fill="#999999"/>
<path d="M54.7806 6.22021H63.9369C65.8994 6.22021 67.3446 6.68819 68.2724 7.62414C68.7695 8.19248 69.1485 8.85411 69.3873 9.57044C69.626 10.2868 69.7198 11.0435 69.6631 11.7964C69.7389 13.0382 69.4523 14.2752 68.8383 15.3571C68.2197 16.2286 67.2847 16.8235 66.2332 17.0146V17.1436C66.7913 17.219 67.329 17.4045 67.8149 17.6893C68.3009 17.9741 68.7254 18.3527 69.0638 18.8029C69.686 19.927 69.9723 21.2061 69.8886 22.4882C69.9985 24.0681 69.5144 25.6321 68.5312 26.8737C67.6251 27.8834 66.0936 28.3882 63.9369 28.3882H54.7806V6.22021ZM62.6102 15.4036C63.4178 15.4895 64.229 15.2777 64.8915 14.8078C65.3859 14.1849 65.6128 13.3912 65.5224 12.6011C65.5502 12.0016 65.4736 11.4018 65.296 10.8286C65.2231 10.6392 65.1101 10.4679 64.9649 10.3261C64.8197 10.1844 64.6456 10.0756 64.4546 10.0073C63.8592 9.81949 63.2355 9.73781 62.6119 9.766H58.8898V15.4045L62.6102 15.4036ZM62.7716 24.8442C63.3952 24.8723 64.0189 24.7907 64.6143 24.6029C64.8099 24.5301 64.9876 24.4162 65.1355 24.2689C65.2834 24.1217 65.398 23.9444 65.4715 23.7491C65.6592 23.167 65.7415 22.5561 65.7146 21.945C65.7433 21.3169 65.6556 20.6889 65.4557 20.0927C65.3777 19.893 65.2596 19.7113 65.1087 19.5589C64.9578 19.4065 64.7773 19.2865 64.5783 19.2065C63.9959 19.0075 63.3812 18.92 62.7663 18.9485H58.8898V24.845L62.7716 24.8442ZM88.946 6.22021V18.5607C89.0126 20.7038 88.8499 22.8479 88.4608 24.9565C88.3482 25.5554 88.104 26.1219 87.7459 26.6151C87.3878 27.1082 86.9247 27.5157 86.39 27.8082C84.7713 28.4704 83.0234 28.757 81.278 28.6462C79.5269 28.7557 77.7736 28.4693 76.1484 27.8082C75.6088 27.5161 75.1413 27.1069 74.7803 26.6108C74.4192 26.1146 74.1737 25.544 74.0618 24.9407C73.674 22.8373 73.5114 20.6986 73.5766 18.5607V6.22021H77.7181V19.8497C77.6855 21.0344 77.7503 22.2197 77.9121 23.3937C77.943 23.6735 78.0398 23.9419 78.1945 24.1771C78.3491 24.4122 78.5572 24.6075 78.8018 24.7468C79.5931 25.0361 80.4365 25.1557 81.2771 25.0977C82.1177 25.1557 82.961 25.0361 83.7524 24.7468C83.9954 24.6109 84.2021 24.4184 84.3549 24.1856C84.5076 23.9528 84.602 23.6866 84.6298 23.4095C84.7784 22.2288 84.837 21.0384 84.8053 19.8488V6.22021H88.946ZM93.4105 28.3882V6.22021H97.5521V28.3882H93.4105ZM102.21 28.3882V6.22021H106.32V24.7152H114.182V28.3882H102.21ZM117.19 6.22021H123.887C126.626 6.22021 128.573 6.52645 129.727 7.13891C130.297 7.44234 130.79 7.87367 131.166 8.39915C131.541 8.92463 131.791 9.53 131.894 10.1679C132.253 12.5291 132.4 14.9177 132.333 17.3051C132.4 19.6925 132.253 22.0811 131.894 24.4423C131.791 25.0799 131.542 25.6851 131.166 26.2104C130.79 26.7357 130.298 27.1669 129.727 27.4704C128.573 28.0828 126.627 28.3891 123.888 28.3891H117.19V6.22021ZM123.693 24.8442C124.768 24.9108 125.846 24.792 126.88 24.4932C127.194 24.3125 127.456 24.055 127.643 23.745C127.83 23.4349 127.935 23.0825 127.948 22.7207C128.155 20.9243 128.236 19.1155 128.191 17.3077C128.236 15.4999 128.155 13.6912 127.948 11.8947C127.935 11.533 127.83 11.1805 127.643 10.8704C127.456 10.5604 127.194 10.3029 126.88 10.1222C125.846 9.82339 124.768 9.70467 123.693 9.77127H121.299V24.8442H123.693ZM140.258 28.3882V20.5262L133.69 6.22372H137.99L142.325 16.1153H142.551L146.822 6.22372H150.995L144.395 20.5262V28.3882H140.258Z" fill="white"/>
</svg>
