<svg width="57" height="50" viewBox="0 0 57 50" fill="none" xmlns="http://www.w3.org/2000/svg">
<path fill-rule="evenodd" clip-rule="evenodd" d="M30.2339 7.38491H30.2192C28.2318 7.38491 26.6155 5.75909 26.6155 3.76007V3.62484C26.6155 1.62626 28.2318 0 30.2192 0H34.5056C34.9645 0 35.3364 0.37449 35.3364 0.836101C35.3364 1.29771 34.9645 1.6722 34.5056 1.6722H30.2192C29.1484 1.6722 28.2775 2.54818 28.2775 3.62484V3.76007C28.2775 4.83717 29.1488 5.71314 30.2192 5.71314H30.2339C32.2209 5.71314 33.8377 7.33897 33.8377 9.33798C33.8377 10.4146 34.7086 11.2906 35.779 11.2906H45.3394C46.4098 11.2906 47.2806 10.4146 47.2806 9.33798V9.20275C47.2806 8.12566 46.4098 7.24968 45.3394 7.24968H45.3247C43.3373 7.24968 41.7209 5.62386 41.7209 3.62484C41.7209 2.54818 40.8496 1.6722 39.7792 1.6722H37.7599C37.301 1.6722 36.9287 1.29771 36.9287 0.836101C36.9287 0.37449 37.301 0 37.7599 0H39.7792C41.7666 0 43.383 1.62626 43.383 3.62484C43.383 4.70193 44.2543 5.57791 45.3247 5.57791H45.3394C47.3263 5.57791 48.9431 7.20374 48.9431 9.20275V9.33798C48.9431 11.3366 47.3263 12.9628 45.3394 12.9628H35.779C33.792 12.9628 32.1752 11.3366 32.1752 9.33798C32.1752 8.26089 31.3043 7.38491 30.2339 7.38491ZM40.512 48.3278H55.6501C56.1095 48.3278 56.4814 48.7023 56.4814 49.1639C56.4814 49.6255 56.1095 50 55.6501 50H1.65093C1.19201 50 0.820124 49.6255 0.820124 49.1639C0.820124 48.7023 1.19201 48.3278 1.65093 48.3278H4.61177L0.0561061 36.4998C-0.043005 36.2427 -0.00939342 35.9528 0.145737 35.7252C0.300437 35.4977 0.557264 35.3616 0.831327 35.3616H6.17299L7.6282 31.4975C7.7049 31.2929 7.85874 31.1269 8.05567 31.035L13.6878 28.4093L12.4428 22.2289C12.4428 22.2283 12.4428 22.2276 12.4427 22.2268C12.4425 22.226 12.4424 22.2251 12.4424 22.2241C12.4381 22.2029 12.4351 22.1812 12.4325 22.1595C12.4323 22.1567 12.4319 22.1538 12.4314 22.1509C12.431 22.148 12.4306 22.145 12.4303 22.1422C12.4174 22.0061 12.4372 21.8648 12.495 21.7309V21.7304C12.4981 21.7233 12.5016 21.7164 12.5051 21.7096C12.5065 21.7068 12.5079 21.7041 12.5092 21.7014C12.5424 21.6325 12.5825 21.5696 12.6303 21.5146L12.6368 21.5081C12.6531 21.4895 12.6699 21.4717 12.6876 21.4548C12.6908 21.4515 12.6944 21.4485 12.6979 21.4456C12.7004 21.4435 12.7029 21.4414 12.7053 21.4392L12.7053 21.4392C12.7199 21.4262 12.7346 21.4132 12.7501 21.4015C12.7587 21.3945 12.7678 21.3885 12.7768 21.3824C12.7897 21.3729 12.8031 21.3633 12.8164 21.3547C12.8234 21.3503 12.8305 21.3464 12.8376 21.3424C12.842 21.34 12.8463 21.3376 12.8505 21.3351C12.8544 21.333 12.8584 21.3308 12.8624 21.3286C12.8705 21.324 12.8788 21.3193 12.8876 21.3152C12.8971 21.31 12.9073 21.3057 12.9175 21.3013C12.9201 21.3002 12.9228 21.299 12.9255 21.2979C12.9375 21.2927 12.9496 21.287 12.9621 21.2823C12.9725 21.2784 12.9831 21.2749 12.9936 21.2714C12.9962 21.2705 12.9988 21.2697 13.0013 21.2688C13.0147 21.2645 13.0276 21.2602 13.041 21.2567C13.0535 21.2532 13.0664 21.2502 13.0793 21.2476C13.0935 21.2441 13.1082 21.2411 13.1228 21.2389C13.1253 21.2385 13.1277 21.2379 13.1302 21.2373C13.133 21.2366 13.1358 21.2359 13.1388 21.2355L31.5377 18.559C31.5389 18.5587 31.5403 18.5586 31.5416 18.5584C31.5422 18.5584 31.5428 18.5583 31.5433 18.5581L31.5523 18.5568C31.5545 18.5564 31.5565 18.5563 31.5586 18.5562C31.5606 18.5561 31.5627 18.556 31.5648 18.5555C31.5898 18.5525 31.6144 18.5503 31.6389 18.5495C31.648 18.549 31.6566 18.549 31.6652 18.549C31.6868 18.549 31.7075 18.5495 31.7286 18.5508L31.7583 18.5534C31.7786 18.5555 31.7984 18.5586 31.8186 18.5625C31.822 18.5631 31.8253 18.5636 31.8287 18.5642C31.835 18.5652 31.8413 18.5663 31.8475 18.5677C31.8695 18.5724 31.8915 18.5785 31.913 18.585C31.9166 18.5862 31.9204 18.5873 31.9243 18.5884C31.9272 18.5893 31.9302 18.5901 31.9333 18.5911C31.9608 18.6002 31.988 18.611 32.0147 18.6231L32.035 18.6335C32.0548 18.6431 32.0746 18.6535 32.0936 18.6648C32.1022 18.67 32.1104 18.6752 32.1186 18.6804C32.1358 18.6916 32.153 18.7033 32.1698 18.7159C32.1739 18.719 32.178 18.7223 32.1822 18.7256C32.1855 18.7283 32.1888 18.731 32.1922 18.7337C32.2095 18.7475 32.2259 18.7623 32.2422 18.7779C32.2437 18.7792 32.2453 18.7805 32.2469 18.7818C32.2494 18.7839 32.2519 18.7859 32.2543 18.7883C32.2553 18.7893 32.2562 18.7905 32.2572 18.7917C32.258 18.7927 32.2587 18.7936 32.2595 18.7943C32.2776 18.8121 32.2944 18.8312 32.3103 18.8507C32.3138 18.855 32.3176 18.8589 32.3207 18.8628C32.3569 18.9088 32.3892 18.9582 32.4159 19.0124L32.4185 19.0184C32.4224 19.0267 32.4254 19.0353 32.4292 19.0436C32.4383 19.0635 32.4465 19.0835 32.4538 19.1034C32.4556 19.1086 32.4573 19.114 32.459 19.1194C32.4601 19.123 32.4612 19.1266 32.4624 19.1303C32.4689 19.1506 32.4745 19.171 32.4797 19.1918C32.4818 19.2005 32.4835 19.2096 32.4853 19.2187C32.4896 19.2399 32.493 19.2612 32.4956 19.2824C32.4969 19.2915 32.4978 19.3002 32.4986 19.3093C32.5008 19.3318 32.5016 19.3543 32.5016 19.3769C32.5016 19.3808 32.5018 19.3847 32.5019 19.3886C32.502 19.3925 32.5021 19.3964 32.5021 19.4003C32.5016 19.428 32.4999 19.4558 32.4965 19.4831C32.496 19.4857 32.4965 19.4878 32.496 19.4904L32.4956 19.493C32.4956 19.4939 32.4952 19.4952 32.4952 19.4961L31.9354 23.9072L55.3989 16.4131C55.754 16.2995 56.1414 16.4382 56.3456 16.7516C56.5499 17.0654 56.5214 17.4776 56.2763 17.7602L49.0795 26.044C48.9153 26.233 48.6848 26.3301 48.4534 26.3301C48.2595 26.3301 48.0642 26.262 47.907 26.1233C47.5614 25.8195 47.5256 25.2911 47.8277 24.9435L53.0681 18.9118L40.6792 22.8686L43.4302 30.0056L45.6645 27.434C45.9665 27.0864 46.4918 27.0509 46.837 27.3547C47.183 27.6585 47.2184 28.1865 46.9163 28.5341L43.7865 32.1368L43.7839 32.1394L40.9851 35.3616H43.3366C43.6004 35.3616 43.8481 35.4873 44.005 35.7005C44.1614 35.9138 44.2084 36.189 44.1313 36.4426L40.512 48.3278ZM38.7732 48.3278L42.2124 37.0338H39.5325L29.7209 48.3278H38.7732ZM21.0621 25.6162L24.3995 48.3278H27.1587L30.65 20.828L21.0621 25.6162ZM16.278 22.4686L20.202 24.1789L26.6472 20.9602L16.278 22.4686ZM35.8387 38.7441L31.3989 28.1314L29.0608 46.5464L35.8387 38.7441ZM38.6155 35.5479L42.1951 31.4273L39.0912 23.3758L32.1414 25.5958L37.056 37.3428L38.4302 35.7612C38.4798 35.6801 38.5423 35.6078 38.6155 35.5479ZM14.0273 30.094L9.06272 32.4086L7.95052 35.3616H15.0882L14.0273 30.094ZM6.7418 37.0338H2.04479L6.39448 48.3278H9.76684V42.2861C9.76684 41.8245 10.1387 41.4505 10.5981 41.4505H14.9478C15.4067 41.4505 15.7786 41.8245 15.7786 42.2861V48.3278H17.6996L15.4248 37.0338H6.74955C6.74917 37.0338 6.74878 37.0339 6.74835 37.034C6.74783 37.0341 6.74725 37.0342 6.74654 37.0342C6.74576 37.0342 6.74507 37.0341 6.74439 37.034C6.74356 37.0339 6.74274 37.0338 6.7418 37.0338ZM11.4293 43.1227V48.3278H14.1165V43.1227H11.4293ZM19.3858 25.6457L14.3884 23.4677L19.3957 48.3278H22.7189L19.3858 25.6457Z" fill="#FF6F06"/>
</svg>
