<svg width="14" height="17" viewBox="0 0 14 17" fill="none" xmlns="http://www.w3.org/2000/svg">
<path fill-rule="evenodd" clip-rule="evenodd" d="M6.77412 16.9546C6.8457 16.9849 6.9225 17.0004 7 17C7.0775 17.0004 7.1543 16.9849 7.22588 16.9546C7.29747 16.9243 7.36239 16.8797 7.41685 16.8234L11.9472 12.1994C12.9269 11.2005 13.5943 9.92743 13.865 8.54129C14.1356 7.15515 13.9974 5.71821 13.4678 4.41225C12.9382 3.1063 12.041 1.99001 10.8897 1.20461C9.73844 0.419216 8.38478 0 7 0C5.61522 0 4.26156 0.419216 3.11026 1.20461C1.95896 1.99001 1.06176 3.1063 0.532155 4.41225C0.00255411 5.71821 -0.135647 7.15515 0.135036 8.54129C0.405718 9.92743 1.07312 11.2005 2.05281 12.1994L6.58315 16.8234C6.63761 16.8797 6.70254 16.9243 6.77412 16.9546ZM3.76859 2.21187C4.72497 1.55906 5.84946 1.2102 7 1.20938C8.15054 1.2102 9.27503 1.55906 10.2314 2.21187C11.1878 2.86468 11.9332 3.79216 12.3733 4.87714C12.8135 5.96212 12.9288 7.15592 12.7045 8.30773C12.4803 9.45953 11.9266 10.5177 11.1135 11.3484L7 15.547L2.88652 11.3484C2.07337 10.5177 1.5197 9.45953 1.29546 8.30773C1.07122 7.15592 1.18648 5.96212 1.62666 4.87714C2.06684 3.79216 2.81221 2.86468 3.76859 2.21187ZM5.36138 9.29174C5.84642 9.62253 6.41666 9.79909 7 9.79909C7.78224 9.79909 8.53244 9.48192 9.08557 8.91736C9.6387 8.3528 9.94944 7.58709 9.94944 6.78868C9.94944 6.19327 9.77646 5.61124 9.45237 5.11618C9.12828 4.62112 8.66764 4.23527 8.1287 4.00742C7.58976 3.77957 6.99673 3.71995 6.4246 3.83611C5.85246 3.95227 5.32692 4.23898 4.91444 4.66C4.50195 5.08101 4.22104 5.61741 4.10724 6.20138C3.99343 6.78534 4.05184 7.39063 4.27508 7.94071C4.49831 8.49079 4.87635 8.96095 5.36138 9.29174ZM6.01683 5.28684C6.30785 5.08837 6.65 4.98243 7 4.98243C7.46935 4.98243 7.91947 5.17273 8.25134 5.51147C8.58322 5.8502 8.76966 6.30963 8.76966 6.78868C8.76966 7.14592 8.66588 7.49514 8.47142 7.79217C8.27697 8.08921 8.00059 8.32072 7.67722 8.45743C7.35386 8.59414 6.99804 8.62991 6.65476 8.56022C6.31148 8.49052 5.99615 8.31849 5.74866 8.06589C5.50117 7.81328 5.33263 7.49144 5.26434 7.14106C5.19606 6.79068 5.23111 6.42751 5.36505 6.09746C5.49899 5.76741 5.72581 5.48531 6.01683 5.28684Z" fill="#FF6F06"/>
</svg>
