<svg width="21" height="18" viewBox="0 0 21 18" fill="none" xmlns="http://www.w3.org/2000/svg">
<path d="M20.8313 0.195525C20.6725 0.029341 20.4322 -0.0378498 20.207 0.0209227L0.467037 5.16749C0.229595 5.22938 0.0507922 5.42004 0.00913568 5.65575C-0.0325209 5.89131 0.070499 6.12905 0.272854 6.26468L6.8171 10.6463V17.387C6.8171 17.635 6.97058 17.8586 7.20594 17.9534C7.28397 17.9849 7.36584 18 7.44691 18C7.61097 18 7.77215 17.9378 7.89264 17.8204L11.822 13.9971L14.7237 15.9398C14.8299 16.0111 14.9547 16.0479 15.0808 16.0479C15.1466 16.0479 15.213 16.0379 15.2771 16.0173C15.4639 15.9578 15.6114 15.8167 15.6758 15.636L20.9651 0.814117C21.0417 0.599761 20.9901 0.361709 20.8313 0.195525ZM17.4985 1.99643L7.4256 9.5656L2.11215 6.00792L17.4985 1.99643ZM8.07705 15.9071V11.4898L10.7663 13.2904L8.07705 15.9071ZM14.7567 14.474L8.51572 10.2953L19.0811 2.35623L14.7567 14.474Z" fill="white"/>
</svg>
