<svg width="141" height="41" viewBox="0 0 141 41" fill="none" xmlns="http://www.w3.org/2000/svg">
<path d="M3.53672 0V12.929L-0.000198364 15.6177V40.0692H3.54V17.087L7.22544 14.1199V3.38835H11.8676V10.5593L19.525 4.2789L35.3183 17.4339V36.4245H13.8772V23.9111H23.4015V32.5162H26.5605V20.499H10.4318V40.07H38.7164V15.4055L19.2377 0.000822051L14.9784 3.38835V0.000822051L3.53672 0Z" fill="white"/>
<path d="M55.9024 37.4055C55.3411 37.6059 54.7507 37.7129 54.1548 37.7222C53.3063 37.7616 52.4759 37.4688 51.8398 36.9059C51.5479 36.6312 51.3185 36.297 51.1669 35.9259C51.0154 35.5548 50.9454 35.1555 50.9615 34.755C50.9455 34.3495 51.015 33.9452 51.1655 33.5683C51.3159 33.1914 51.544 32.8504 51.8349 32.5674C52.1416 32.2837 52.5015 32.0635 52.8938 31.9198C53.2861 31.776 53.7031 31.7115 54.1205 31.7299C54.6994 31.737 55.2746 31.824 55.8297 31.9887V32.7952C55.285 32.541 54.6937 32.4021 54.0927 32.387C53.8045 32.3789 53.5179 32.4331 53.2526 32.5458C52.9872 32.6585 52.7492 32.8271 52.5549 33.0401C52.1455 33.4927 51.929 34.0872 51.9516 34.6971C51.9411 35.0065 51.9963 35.3146 52.1137 35.6011C52.231 35.8876 52.4078 36.1459 52.6324 36.359C53.1077 36.7978 53.7377 37.03 54.3841 37.0047C54.9048 36.9854 55.4184 36.8769 55.9024 36.6839V37.4055ZM58.4916 34.7232C58.4505 33.9342 58.7022 33.1577 59.1985 32.5429C59.4341 32.2733 59.7272 32.06 60.0563 31.9187C60.3853 31.7774 60.7418 31.7118 61.0996 31.7267C61.4574 31.7118 61.8139 31.7774 62.1429 31.9187C62.472 32.06 62.7651 32.2733 63.0007 32.5429C63.497 33.1577 63.7487 33.9342 63.7076 34.7232C63.7495 35.5126 63.499 36.2897 63.004 36.9059C62.7684 37.1756 62.4752 37.3889 62.1462 37.5302C61.8172 37.6715 61.4606 37.7371 61.1029 37.7222C60.7451 37.7371 60.3886 37.6715 60.0595 37.5302C59.7305 37.3889 59.4374 37.1756 59.2018 36.9059C58.7044 36.2906 58.4515 35.5134 58.4916 34.7232ZM59.4777 34.7232C59.4407 35.3292 59.5872 35.9322 59.898 36.4537C60.029 36.6496 60.2081 36.8085 60.4183 36.915C60.6285 37.0215 60.8626 37.0721 61.098 37.0618C61.3337 37.072 61.5681 37.0214 61.7786 36.9149C61.9892 36.8084 62.1688 36.6496 62.3003 36.4537C62.6126 35.9327 62.76 35.3295 62.7232 34.7232C62.7598 34.1182 62.6124 33.5164 62.3003 32.9968C62.1688 32.8009 61.9892 32.6421 61.7786 32.5356C61.5681 32.4291 61.3337 32.3785 61.098 32.3887C60.8626 32.3784 60.6285 32.429 60.4183 32.5355C60.2081 32.642 60.029 32.8009 59.898 32.9968C59.5876 33.517 59.4412 34.1186 59.4777 34.7232ZM66.6127 37.5802V31.8507H67.4935L70.2549 36.0031H70.2647V31.8507H71.0206V37.5834H70.1619L67.3824 33.396H67.3686V37.5834L66.6127 37.5802ZM78.3768 32.0018V32.7633C77.7991 32.5343 77.1859 32.4078 76.5647 32.3895C75.7288 32.3895 75.3109 32.6567 75.3109 33.1911C75.3077 33.2904 75.3272 33.3892 75.3679 33.4799C75.4087 33.5706 75.4696 33.6507 75.546 33.7143C75.8099 33.8993 76.1037 34.0373 76.4145 34.1224L77.0063 34.3183L77.5695 34.5012C78.4402 34.7923 78.8756 35.2854 78.8756 35.9803C78.8806 36.231 78.8218 36.4789 78.7047 36.7006C78.5876 36.9224 78.4161 37.1107 78.2062 37.2479C77.6743 37.5877 77.0498 37.7535 76.4194 37.7222C75.7376 37.6981 75.0612 37.5921 74.4048 37.4063V36.537C75.0444 36.8431 75.7376 37.0217 76.4455 37.0626C76.8269 37.0812 77.2059 36.9924 77.5393 36.8063C77.6631 36.7392 77.7664 36.6397 77.8383 36.5186C77.9101 36.3974 77.9479 36.2591 77.9475 36.1182C77.9511 36.0181 77.9308 35.9185 77.8882 35.8277C77.8456 35.737 77.782 35.6578 77.7026 35.5966C77.3934 35.3985 77.0575 35.2454 76.7051 35.142L76.0855 34.9281C75.6178 34.7917 75.1815 34.5646 74.8015 34.2596C74.6809 34.1411 74.5865 33.9985 74.5247 33.8411C74.4628 33.6837 74.4347 33.5151 74.4424 33.3462C74.431 33.1173 74.4752 32.8891 74.5713 32.6811C74.6674 32.4732 74.8125 32.2916 74.9942 32.152C75.4531 31.8426 76.0017 31.6941 76.5541 31.7299C77.1709 31.7413 77.7836 31.8327 78.3768 32.0018ZM83.7838 37.5834V32.5274H81.4697V31.8679H87.0293V32.5274H84.7095V37.5834H83.7838ZM89.9328 37.5834V31.8695H91.6184C92.1109 31.8419 92.6045 31.897 93.0787 32.0328C93.3375 32.1101 93.5635 32.2708 93.7215 32.4899C93.8794 32.709 93.9605 32.9742 93.9521 33.2441C93.9652 33.6006 93.8586 33.9511 93.6493 34.24C93.3728 34.5619 93.0259 34.8158 92.6355 34.982L94.7153 37.5834H93.5954L91.6935 35.2048H90.8584V37.5834H89.9328ZM90.8576 34.5453H91.3474C91.7649 34.5676 92.1789 34.4582 92.531 34.2326C92.669 34.1402 92.7815 34.0143 92.8578 33.8668C92.9342 33.7192 92.972 33.5547 92.9677 33.3886C92.9827 33.2563 92.96 33.1224 92.9022 33.0024C92.8445 32.8824 92.754 32.7811 92.6412 32.7103C92.2563 32.5591 91.8422 32.4966 91.4298 32.5274H90.8584L90.8576 34.5453ZM97.5045 31.8679H98.4302V35.3387C98.393 35.7983 98.4988 36.2581 98.733 36.6553C98.8511 36.7975 99.0019 36.9089 99.1725 36.98C99.3431 37.0511 99.5284 37.0797 99.7125 37.0635C99.904 37.0814 100.097 37.0538 100.276 36.9829C100.455 36.9119 100.614 36.7997 100.741 36.6553C100.985 36.2536 101.095 35.7849 101.055 35.3166V31.8679H101.859V35.1869C101.895 35.7146 101.803 36.2434 101.591 36.728C101.404 37.0531 101.13 37.3189 100.799 37.4948C100.468 37.6707 100.094 37.7495 99.7207 37.7222C99.416 37.7476 99.1094 37.7084 98.8209 37.6071C98.5324 37.5058 98.2685 37.3448 98.0465 37.1345C97.6452 36.6209 97.4518 35.9752 97.5045 35.3256V31.8679ZM109.927 37.4055C109.364 37.6063 108.773 37.7133 108.176 37.7222C107.326 37.7622 106.495 37.4694 105.858 36.9059C105.567 36.6314 105.337 36.2974 105.186 35.9267C105.034 35.5559 104.964 35.1569 104.98 34.7567C104.964 34.3512 105.033 33.9468 105.184 33.57C105.334 33.1931 105.562 32.852 105.853 32.5691C106.16 32.2853 106.52 32.0652 106.912 31.9214C107.305 31.7776 107.722 31.7131 108.139 31.7316C108.718 31.7386 109.293 31.8257 109.848 31.9903V32.7968C109.303 32.5426 108.712 32.4037 108.111 32.3887C107.823 32.3806 107.536 32.4347 107.271 32.5474C107.006 32.6601 106.768 32.8287 106.573 33.0417C106.164 33.4943 105.947 34.0889 105.97 34.6987C105.96 35.0081 106.015 35.3163 106.132 35.6027C106.249 35.8892 106.426 36.1476 106.651 36.3607C107.126 36.7995 107.756 37.0318 108.403 37.0063C108.926 36.9879 109.442 36.8793 109.928 36.6855L109.927 37.4055ZM114.653 37.5834V32.5274H112.339V31.8679H117.898V32.5274H115.578V37.5834H114.653ZM120.75 37.5834V36.9239H122.37V32.5274H120.75V31.8679H124.913V32.5274H123.295V36.9239H124.915V37.5834H120.75ZM127.947 34.7265C127.905 33.9374 128.157 33.161 128.653 32.5462C128.889 32.2766 129.182 32.0632 129.511 31.922C129.84 31.7807 130.197 31.7151 130.555 31.7299C130.912 31.7151 131.269 31.7807 131.598 31.922C131.927 32.0632 132.22 32.2766 132.456 32.5462C132.952 33.161 133.204 33.9374 133.163 34.7265C133.203 35.5151 132.951 36.291 132.456 36.9059C132.22 37.1756 131.927 37.3889 131.598 37.5302C131.269 37.6715 130.912 37.7371 130.555 37.7222C130.197 37.7371 129.84 37.6715 129.511 37.5302C129.182 37.3889 128.889 37.1756 128.653 36.9059C128.157 36.2902 127.906 35.513 127.947 34.7232V34.7265ZM128.933 34.7265C128.896 35.3324 129.042 35.9355 129.353 36.457C129.484 36.6529 129.663 36.8118 129.873 36.9183C130.083 37.0248 130.318 37.0754 130.553 37.0651C130.789 37.0752 131.023 37.0246 131.234 36.9181C131.444 36.8117 131.624 36.6529 131.755 36.457C132.068 35.936 132.215 35.3328 132.178 34.7265C132.215 34.1215 132.067 33.5196 131.755 33.0001C131.624 32.8042 131.444 32.6454 131.234 32.5389C131.023 32.4324 130.789 32.3818 130.553 32.3919C130.318 32.3817 130.083 32.4322 129.873 32.5388C129.663 32.6453 129.484 32.8042 129.353 33.0001C129.043 33.5193 128.897 34.1197 128.933 34.7232V34.7265ZM136.068 37.5834V31.8507H136.945L139.707 36.0031H139.716V31.8507H140.472V37.5834H139.618L136.837 33.396H136.824V37.5834H136.068Z" fill="#E1E1E1"/>
<path d="M50.9631 5.78638H59.4809C61.3067 5.78638 62.6511 6.22172 63.5141 7.09241C63.9766 7.62113 64.3292 8.23662 64.5513 8.90301C64.7734 9.5694 64.8607 10.2733 64.8079 10.9738C64.8784 12.1289 64.6118 13.2797 64.0406 14.2862C63.4651 15.0969 62.5953 15.6503 61.6171 15.8282V15.9481C62.1364 16.0182 62.6366 16.1908 63.0886 16.4558C63.5407 16.7207 63.9356 17.0729 64.2504 17.4917C64.8293 18.5374 65.0956 19.7274 65.0177 20.9201C65.12 22.3898 64.6696 23.8448 63.7549 24.9998C62.912 25.939 61.4873 26.4087 59.4809 26.4087H50.9631V5.78638ZM58.2467 14.3295C58.9981 14.4094 59.7527 14.2123 60.369 13.7752C60.8289 13.1957 61.04 12.4573 60.9559 11.7223C60.9818 11.1646 60.9105 10.6067 60.7453 10.0734C60.6775 9.89729 60.5724 9.73785 60.4373 9.60599C60.3022 9.47414 60.1403 9.37298 59.9625 9.30941C59.4087 9.13469 58.8285 9.05871 58.2484 9.08493H54.7857V14.3303L58.2467 14.3295ZM58.3969 23.1118C58.9771 23.138 59.5573 23.062 60.1111 22.8873C60.2931 22.8196 60.4584 22.7137 60.596 22.5767C60.7336 22.4396 60.8402 22.2747 60.9086 22.093C61.0832 21.5515 61.1598 20.9832 61.1347 20.4148C61.1614 19.8305 61.0798 19.2462 60.8939 18.6916C60.8213 18.5058 60.7114 18.3368 60.571 18.195C60.4307 18.0532 60.2627 17.9417 60.0776 17.8672C59.5358 17.6821 58.964 17.6007 58.392 17.6272H54.7857V23.1126L58.3969 23.1118ZM82.7463 5.78638V17.2664C82.8082 19.2601 82.6569 21.2547 82.2949 23.2162C82.1902 23.7734 81.963 24.3004 81.6299 24.7592C81.2967 25.2179 80.8659 25.597 80.3685 25.8691C78.8627 26.4852 77.2367 26.7517 75.6129 26.6487C73.9839 26.7506 72.3529 26.4841 70.841 25.8691C70.339 25.5974 69.9042 25.2168 69.5683 24.7552C69.2324 24.2936 69.0041 23.7628 68.8999 23.2015C68.5392 21.2448 68.3879 19.2552 68.4485 17.2664V5.78638H72.3013V18.4655C72.2709 19.5676 72.3313 20.6703 72.4817 21.7625C72.5105 22.0227 72.6006 22.2724 72.7444 22.4912C72.8883 22.71 73.0819 22.8916 73.3094 23.0211C74.0456 23.2903 74.8301 23.4016 75.6121 23.3477C76.3941 23.4016 77.1786 23.2903 77.9148 23.0211C78.1409 22.8948 78.3332 22.7157 78.4753 22.4991C78.6174 22.2826 78.7052 22.0349 78.7311 21.7771C78.8693 20.6787 78.9238 19.5714 78.8943 18.4647V5.78638H82.7463ZM86.8995 26.4087V5.78638H90.7523V26.4087H86.8995ZM95.0859 26.4087V5.78638H98.9085V22.9918H106.222V26.4087H95.0859ZM109.021 5.78638H115.251C117.8 5.78638 119.61 6.07126 120.683 6.64101C121.214 6.92329 121.672 7.32454 122.022 7.81339C122.372 8.30223 122.604 8.86539 122.7 9.45879C123.033 11.6554 123.17 13.8774 123.108 16.0983C123.17 18.3193 123.033 20.5413 122.7 22.7379C122.604 23.3311 122.372 23.894 122.022 24.3827C121.673 24.8714 121.215 25.2726 120.684 25.5549C119.611 26.1246 117.8 26.4095 115.252 26.4095H109.021V5.78638ZM115.071 23.1118C116.07 23.1737 117.073 23.0633 118.035 22.7852C118.327 22.6172 118.571 22.3777 118.745 22.0892C118.919 21.8008 119.017 21.4729 119.029 21.1364C119.221 19.4652 119.297 17.7825 119.255 16.1008C119.297 14.419 119.221 12.7364 119.029 11.0652C119.017 10.7287 118.919 10.4008 118.745 10.1124C118.571 9.82393 118.327 9.58442 118.035 9.41634C117.073 9.13832 116.07 9.02788 115.071 9.08983H112.844V23.1118H115.071ZM130.48 26.4087V19.0949L124.37 5.78964H128.37L132.403 14.9915H132.614L136.587 5.78964H140.469L134.329 19.0949V26.4087H130.48Z" fill="white"/>
</svg>
