<svg width="24" height="18" viewBox="0 0 24 18" fill="none" xmlns="http://www.w3.org/2000/svg">
<path fill-rule="evenodd" clip-rule="evenodd" d="M0 0.818182C0 0.366319 0.323822 0 0.723214 0H22.4196C22.819 0 23.1429 0.366319 23.1429 0.818182C23.1429 1.27004 22.819 1.63636 22.4196 1.63636H0.723214C0.323822 1.63636 0 1.27004 0 0.818182ZM7.23214 9C7.23214 8.54814 7.55597 8.18182 7.95536 8.18182H22.4196C22.819 8.18182 23.1429 8.54814 23.1429 9C23.1429 9.45186 22.819 9.81818 22.4196 9.81818H7.95536C7.55597 9.81818 7.23214 9.45186 7.23214 9ZM0.723214 16.3636C0.323822 16.3636 0 16.73 0 17.1818C0 17.6337 0.323822 18 0.723214 18H22.4196C22.819 18 23.1429 17.6337 23.1429 17.1818C23.1429 16.73 22.819 16.3636 22.4196 16.3636H0.723214Z" fill="white"/>
</svg>
