<svg width="15" height="13" viewBox="0 0 15 13" fill="none" xmlns="http://www.w3.org/2000/svg">
<path d="M13.2422 0H1.75781C0.788555 0 0 0.841125 0 1.875V3.42172L6.45091 8.53988C6.76465 8.78878 7.13232 8.91325 7.5 8.91325C7.86768 8.91325 8.23535 8.78881 8.54909 8.53988L15 3.42172V1.875C15 0.841125 14.2114 0 13.2422 0ZM13.8281 2.79362L7.84972 7.53687C7.64054 7.70284 7.35946 7.70284 7.15031 7.53687L1.17188 2.79362V1.875C1.17188 1.53038 1.43473 1.25 1.75781 1.25H13.2422C13.5653 1.25 13.8281 1.53038 13.8281 1.875V2.79362ZM13.8281 5.90934L15 4.97959V11.125C15 12.1589 14.2114 13 13.2422 13H1.75781C0.788555 13 0 12.1589 0 11.125V4.97959L1.17188 5.90934V11.125C1.17188 11.4696 1.43473 11.75 1.75781 11.75H13.2422C13.5653 11.75 13.8281 11.4696 13.8281 11.125V5.90934Z" fill="#FF6F06"/>
</svg>
