<svg width="58" height="50" viewBox="0 0 58 50" fill="none" xmlns="http://www.w3.org/2000/svg">
<path fill-rule="evenodd" clip-rule="evenodd" d="M55.6908 40.4121V33.0645C55.6908 32.0146 54.9121 31.1274 53.8345 30.7935V29.8387C53.8345 28.5049 52.5851 27.4193 51.0499 27.4193H40.6692C40.2849 26.4832 39.2639 25.8064 38.0554 25.8064V15.7153C38.0554 13.6911 36.7986 11.8121 34.7743 10.8104L16.982 2.00321C16.1745 0.811229 14.6987 0 12.9945 0C10.4467 0 8.37405 1.79515 8.35641 4.0057H8.35362L7.45236 27.4983C5.32405 27.8645 3.71271 29.4969 3.71271 31.4516C3.71271 32.3185 4.03572 33.117 4.57408 33.7758L1.9334 36.4516C0.686855 37.7152 0 39.3275 0 40.9919C0 42.8564 0.835357 44.6081 2.35202 45.9257L5.13748 48.3459C6.36452 49.4121 7.99626 50 9.73196 50H16.7072H17.6354H19.4918V48.3871H17.6354V43.9678L14.4471 41.7516C13.479 41.079 12.8711 40.1193 12.7337 39.0483L12.0682 33.8444C12.6427 33.1726 12.9945 32.3501 12.9945 31.4516C12.9945 30.2016 12.3225 29.0967 11.2913 28.3564L15.6064 7.36138C15.7698 7.26372 15.9155 7.14758 16.064 7.03304L25.5871 15.3073C25.2604 15.7871 25.0609 16.3388 25.0609 16.9355C25.0609 18.4339 26.2489 19.6863 27.8454 20.0468V25.8064H27.5113C26.1886 25.8064 25.0395 26.6243 24.7806 27.7509L22.2949 38.5516L22.2819 40.4072C21.1319 41.4258 20.42 42.8185 20.42 44.3548C20.42 47.4669 23.3345 50 26.9172 50H51.0499C54.6327 50 57.5472 47.4669 57.5472 44.3548C57.5472 42.821 56.8371 41.4298 55.6908 40.4121ZM8.35362 29.0323C9.88883 29.0323 11.1382 30.1178 11.1382 31.4516C11.1382 32.7856 9.88883 33.8709 8.35362 33.8709C6.81842 33.8709 5.56909 32.7856 5.56909 31.4516C5.56909 30.1178 6.81842 29.0323 8.35362 29.0323ZM13.2878 43.0113L15.7791 44.742V45.1613H13.9227V46.7741H15.7791V48.3871H9.73196C8.49193 48.3871 7.32612 47.967 6.44993 47.2057L3.66447 44.7854C2.49866 43.7726 1.85636 42.425 1.85636 40.9919C1.85636 39.7122 2.38451 38.4726 3.34331 37.5007L5.93386 34.8758C6.64019 35.2541 7.46442 35.4839 8.35362 35.4839C9.07483 35.4839 9.74867 35.3282 10.3585 35.0717L10.8894 39.2259C11.0806 40.725 11.9327 42.0694 13.2878 43.0113ZM9.56675 27.5766C9.4795 27.5556 9.39874 27.5234 9.31057 27.5073L10.0912 7.15153C10.8885 7.71377 11.89 8.06454 12.9945 8.06454C13.0721 8.06454 13.1483 8.06023 13.2237 8.05359C13.3068 8.04623 13.389 8.03618 13.4714 8.02594L13.5876 8.01212L9.56675 27.5766ZM12.9945 6.4516C11.4593 6.4516 10.21 5.36607 10.21 4.03227C10.21 2.69847 11.4593 1.61294 12.9945 1.61294C14.5297 1.61294 15.7791 2.69847 15.7791 4.03227C15.7791 5.36607 14.5297 6.4516 12.9945 6.4516ZM40.8399 32.258H42.6963V30.6452H40.8399V29.0323H51.0499C51.5613 29.0323 51.9781 29.3936 51.9781 29.8387V30.6452H44.5527V32.258H52.9063C53.4177 32.258 53.8345 32.6193 53.8345 33.0645V39.2621C52.9889 38.9121 52.0477 38.7098 51.0499 38.7098H40.8399V32.258ZM17.189 5.72976C17.4451 5.25315 17.5955 4.72987 17.6187 4.17498L33.8554 12.2121C35.3015 12.9274 36.199 14.2702 36.199 15.7153V25.8064H29.7018V20.0468C31.2982 19.6863 32.4863 18.4339 32.4863 16.9355C32.4863 15.1565 30.8212 13.7098 28.7736 13.7098C28.0867 13.7098 27.4519 13.883 26.8996 14.167L17.189 5.72976ZM26.9172 16.9355C26.9172 16.046 27.7498 15.3225 28.7736 15.3225C29.7974 15.3225 30.6299 16.046 30.6299 16.9355C30.6299 17.825 29.7974 18.5484 28.7736 18.5484C27.7498 18.5484 26.9172 17.825 26.9172 16.9355ZM24.1327 38.7895L26.6007 28.0677C26.687 27.692 27.0704 27.4193 27.5113 27.4193H38.0554C38.5668 27.4193 38.9836 27.7807 38.9836 28.2259V38.7098H26.9172C25.9194 38.7098 24.9783 38.9121 24.1327 39.2621V38.7895ZM26.9172 48.3871C24.3582 48.3871 22.2763 46.5783 22.2763 44.3548C22.2763 42.1315 24.3582 40.3225 26.9172 40.3225H51.0499C53.6089 40.3225 55.6908 42.1315 55.6908 44.3548C55.6908 46.5783 53.6089 48.3871 51.0499 48.3871H26.9172ZM50.1217 41.1291C49.0079 41.1291 48.0185 41.5662 47.3372 42.2435C46.6559 41.5662 45.6664 41.1291 44.5526 41.1291C43.4388 41.1291 42.4494 41.5662 41.7681 42.2435C41.0868 41.5662 40.0974 41.1291 38.9836 41.1291C37.8697 41.1291 36.8803 41.5662 36.199 42.2435C35.5177 41.5662 34.5283 41.1291 33.4145 41.1291C32.3007 41.1291 31.3112 41.5662 30.6299 42.2435C29.9486 41.5662 28.9592 41.1291 27.8454 41.1291C25.7978 41.1291 24.1327 42.5758 24.1327 44.355C24.1327 46.134 25.7978 47.5807 27.8454 47.5807C28.9592 47.5807 29.9486 47.1436 30.6299 46.4662C31.3112 47.1436 32.3007 47.5807 33.4145 47.5807C34.5283 47.5807 35.5177 47.1436 36.199 46.4662C36.8803 47.1436 37.8697 47.5807 38.9836 47.5807C40.0974 47.5807 41.0868 47.1436 41.7681 46.4662C42.4494 47.1436 43.4388 47.5807 44.5526 47.5807C45.6664 47.5807 46.6559 47.1436 47.3372 46.4662C48.0185 47.1436 49.0079 47.5807 50.1217 47.5807C52.1693 47.5807 53.8344 46.134 53.8344 44.355C53.8344 42.5758 52.1693 41.1291 50.1217 41.1291ZM27.8454 45.9677C26.8216 45.9677 25.989 45.2445 25.989 44.355C25.989 43.4653 26.8216 42.742 27.8454 42.742C28.8692 42.742 29.7018 43.4653 29.7018 44.355C29.7018 45.2445 28.8692 45.9677 27.8454 45.9677ZM33.4145 45.9677C32.3907 45.9677 31.5581 45.2445 31.5581 44.355C31.5581 43.4653 32.3907 42.742 33.4145 42.742C34.4383 42.742 35.2708 43.4653 35.2708 44.355C35.2708 45.2445 34.4383 45.9677 33.4145 45.9677ZM38.9836 45.9677C37.9598 45.9677 37.1272 45.2445 37.1272 44.355C37.1272 43.4653 37.9598 42.742 38.9836 42.742C40.0073 42.742 40.8399 43.4653 40.8399 44.355C40.8399 45.2445 40.0073 45.9677 38.9836 45.9677ZM44.5526 45.9677C43.5288 45.9677 42.6963 45.2445 42.6963 44.355C42.6963 43.4653 43.5288 42.742 44.5526 42.742C45.5764 42.742 46.409 43.4653 46.409 44.355C46.409 45.2445 45.5764 45.9677 44.5526 45.9677ZM50.1217 45.9677C49.0979 45.9677 48.2653 45.2445 48.2653 44.355C48.2653 43.4653 49.0979 42.742 50.1217 42.742C51.1455 42.742 51.9781 43.4653 51.9781 44.355C51.9781 45.2445 51.1455 45.9677 50.1217 45.9677ZM28.0124 29.0323H38.0553V35.4839H26.9172L26.9348 33.7129L28.0124 29.0323ZM28.7921 33.8709H36.199V30.6452H29.5346L28.7921 33.8709ZM51.9781 33.8709H48.2653V35.4839H51.9781V33.8709ZM42.6963 33.8709H46.409V35.4839H42.6963V33.8709Z" fill="#FF6F06"/>
</svg>
