<svg width="135" height="21" viewBox="0 0 135 21" fill="none" xmlns="http://www.w3.org/2000/svg">
<path d="M3.09171 11.6197C3.01442 11.6197 1.31398 11.6197 0.541049 11.6197C0.128821 11.6197 0 11.4651 0 11.0786C0 10.0481 0 8.99172 0 7.96115C0 7.54892 0.154586 7.4201 0.541049 7.4201H3.09171C3.09171 7.34281 3.09171 5.84848 3.09171 5.15285C3.09171 4.12228 3.27206 3.14324 3.78734 2.24149C4.32839 1.31398 5.10132 0.695634 6.08036 0.334935C6.72447 0.103057 7.36857 0 8.06421 0H10.5891C10.9498 0 11.1044 0.154585 11.1044 0.515285V3.45241C11.1044 3.81311 10.9498 3.96769 10.5891 3.96769C9.89347 3.96769 9.19783 3.96769 8.5022 3.99346C7.80657 3.99346 7.44587 4.32839 7.44587 5.04979C7.4201 5.82272 7.44587 6.56988 7.44587 7.36857H10.4345C10.8467 7.36857 11.0013 7.52316 11.0013 7.93539V11.0529C11.0013 11.4651 10.8725 11.5939 10.4345 11.5939C9.50701 11.5939 7.52316 11.5939 7.44587 11.5939V19.9931C7.44587 20.431 7.31704 20.5856 6.85329 20.5856C5.77119 20.5856 4.71486 20.5856 3.63276 20.5856C3.24629 20.5856 3.09171 20.431 3.09171 20.0446C3.09171 17.3393 3.09171 11.697 3.09171 11.6197Z" fill="white"/>
<path d="M53.6743 3.37566C53.5403 3.15764 53.295 3.03406 53.0397 3.0562L51.9093 3.15467L52.9898 0.976527C53.1185 0.717105 53.0676 0.40455 52.8634 0.199234C52.6591 -0.00608071 52.3469 -0.0584168 52.0868 0.0689255L49.2271 1.46947C47.4603 0.536718 45.2529 0.813586 43.734 2.19722C42.4663 3.35198 41.8 5.12782 41.9243 6.89874C38.611 6.56666 35.8065 4.67021 34.1481 1.60593C34.0381 1.40266 33.8318 1.26969 33.6012 1.25335C33.3702 1.23728 33.1477 1.33965 33.0102 1.52548C31.9816 2.915 31.9094 4.82018 32.7158 6.38756C32.4935 6.33141 32.257 6.25543 31.9947 6.16781C31.7699 6.09267 31.5222 6.1408 31.3419 6.29453C31.1615 6.44826 31.0748 6.68519 31.1134 6.91902C31.4325 8.85342 32.5605 10.3401 34.3424 11.2201C34.1104 11.3009 33.8736 11.3665 33.6329 11.4167C33.3937 11.4665 33.2 11.6415 33.1263 11.8744C33.0526 12.1073 33.1102 12.3619 33.2772 12.5403C34.5604 13.912 36.414 14.5871 37.7306 14.9109C36.2336 16.0832 34.6176 16.2794 32.2694 16.1988C31.9976 16.1906 31.7471 16.3437 31.6329 16.5901C31.5186 16.8365 31.5629 17.1274 31.7455 17.3287C32.7244 18.4077 36.2908 19.6243 40.0398 19.7156C40.1881 19.7191 40.3394 19.7211 40.4938 19.7211C43.1262 19.721 46.6051 19.1568 49.1022 16.6596C50.9923 14.7696 52.1745 12.5938 52.6159 10.1928C52.9724 8.25355 52.7471 6.70065 52.6389 5.9543C52.6309 5.89944 52.6224 5.84122 52.6155 5.7903L53.6729 4.08605C53.8077 3.86865 53.8083 3.59369 53.6743 3.37566Z" fill="white"/>
<path fill-rule="evenodd" clip-rule="evenodd" d="M89.5244 0H79.0244C76.0844 0 73.7744 2.2 73.7744 5V15C73.7744 17.8 76.0844 20 79.0244 20H89.5244C92.4644 20 94.7744 17.8 94.7744 15V5C94.7744 2.2 92.4644 0 89.5244 0ZM92.6744 15C92.6744 16.7 91.3094 18 89.5244 18H79.0244C77.2394 18 75.8744 16.7 75.8744 15V5C75.8744 3.3 77.2394 2 79.0244 2H89.5244C91.3094 2 92.6744 3.3 92.6744 5V15ZM84.2744 5C81.3344 5 79.0244 7.2 79.0244 10C79.0244 12.8 81.3344 15 84.2744 15C87.2144 15 89.5244 12.8 89.5244 10C89.5244 7.2 87.2144 5 84.2744 5ZM84.2744 13C82.4894 13 81.1244 11.7 81.1244 10C81.1244 8.3 82.4894 7 84.2744 7C86.0594 7 87.4244 8.3 87.4244 10C87.4244 11.7 86.0594 13 84.2744 13ZM90.5744 5C90.5744 5.55229 90.1043 6 89.5244 6C88.9445 6 88.4744 5.55229 88.4744 5C88.4744 4.44772 88.9445 4 89.5244 4C90.1043 4 90.5744 4.44772 90.5744 5Z" fill="white"/>
<path d="M132.207 0H117.527C116.797 0 116.097 0.290004 115.581 0.806215C115.064 1.32243 114.774 2.02256 114.774 2.75259V17.4331C114.774 18.1631 115.064 18.8632 115.581 19.3794C116.097 19.8957 116.797 20.1857 117.527 20.1857H132.207C132.938 20.1857 133.638 19.8957 134.154 19.3794C134.67 18.8632 134.96 18.1631 134.96 17.4331V2.75259C134.96 2.02256 134.67 1.32243 134.154 0.806215C133.638 0.290004 132.938 0 132.207 0V0ZM121.656 15.9742C121.656 16.0302 121.645 16.0856 121.624 16.1374C121.603 16.1891 121.571 16.2362 121.532 16.2758C121.492 16.3154 121.445 16.3469 121.393 16.3683C121.342 16.3898 121.286 16.4008 121.23 16.4008H119.417C119.361 16.401 119.305 16.3901 119.254 16.3687C119.202 16.3473 119.155 16.3159 119.115 16.2762C119.075 16.2366 119.044 16.1895 119.023 16.1376C119.001 16.0858 118.99 16.0303 118.99 15.9742V8.37246C118.99 8.25931 119.035 8.15078 119.115 8.07077C119.195 7.99076 119.304 7.94581 119.417 7.94581H121.23C121.343 7.94611 121.452 7.9912 121.531 8.07118C121.611 8.15116 121.656 8.2595 121.656 8.37246V15.9742ZM120.323 7.22555C119.983 7.22555 119.65 7.12465 119.367 6.93561C119.084 6.74658 118.864 6.47789 118.734 6.16354C118.604 5.84918 118.569 5.50327 118.636 5.16955C118.702 4.83583 118.866 4.52929 119.107 4.28869C119.347 4.0481 119.654 3.88425 119.988 3.81787C120.321 3.75149 120.667 3.78556 120.982 3.91577C121.296 4.04598 121.565 4.26648 121.754 4.54939C121.943 4.83231 122.044 5.16492 122.044 5.50518C122.044 5.96145 121.862 6.39903 121.54 6.72166C121.217 7.04429 120.779 7.22555 120.323 7.22555ZM131.134 16.004C131.134 16.0556 131.124 16.1066 131.104 16.1543C131.085 16.202 131.056 16.2453 131.019 16.2817C130.983 16.3182 130.94 16.347 130.892 16.3667C130.844 16.3864 130.793 16.3964 130.742 16.3963H128.792C128.74 16.3964 128.689 16.3864 128.642 16.3667C128.594 16.347 128.551 16.3182 128.514 16.2817C128.478 16.2453 128.449 16.202 128.429 16.1543C128.41 16.1066 128.4 16.0556 128.4 16.004V12.4429C128.4 11.9107 128.556 10.1123 127.009 10.1123C125.81 10.1123 125.566 11.343 125.518 11.8958V16.0086C125.518 16.1116 125.477 16.2106 125.405 16.284C125.332 16.3573 125.234 16.3993 125.131 16.4008H123.248C123.196 16.4008 123.145 16.3907 123.098 16.371C123.05 16.3512 123.007 16.3223 122.971 16.2859C122.935 16.2495 122.906 16.2062 122.886 16.1586C122.867 16.111 122.857 16.0601 122.857 16.0086V8.3392C122.857 8.28774 122.867 8.23676 122.886 8.18918C122.906 8.1416 122.935 8.09835 122.971 8.06191C123.007 8.02547 123.05 7.99656 123.098 7.97683C123.145 7.95711 123.196 7.94696 123.248 7.94696H125.131C125.235 7.94696 125.335 7.98828 125.408 8.06184C125.482 8.1354 125.523 8.23517 125.523 8.3392V9.00211C125.968 8.33346 126.628 7.81965 128.035 7.81965C131.152 7.81965 131.132 10.7305 131.132 12.3293L131.134 16.004Z" fill="white"/>
</svg>
