<svg width="146" height="20" viewBox="0 0 146 20" fill="none" xmlns="http://www.w3.org/2000/svg">
<path d="M10 0L13.09 6.26L20 7.27L15 12.14L16.18 19.02L10 15.77L3.82 19.02L5 12.14L0 7.27L6.91 6.26L10 0Z" fill="#F8A324"/>
<path d="M42 0L45.09 6.26L52 7.27L47 12.14L48.18 19.02L42 15.77L35.82 19.02L37 12.14L32 7.27L38.91 6.26L42 0Z" fill="#F8A324"/>
<path d="M72 0L75.09 6.26L82 7.27L77 12.14L78.18 19.02L72 15.77L65.82 19.02L67 12.14L62 7.27L68.91 6.26L72 0Z" fill="#F8A324"/>
<path d="M104 0L107.09 6.26L114 7.27L109 12.14L110.18 19.02L104 15.77L97.82 19.02L99 12.14L94 7.27L100.91 6.26L104 0Z" fill="#F8A324"/>
<path d="M136 0L139.09 6.26L146 7.27L141 12.14L142.18 19.02L136 15.77L129.82 19.02L131 12.14L126 7.27L132.91 6.26L136 0Z" fill="#F8A324"/>
</svg>
